<svg xmlns="http://www.w3.org/2000/svg" width="3400" height="2600" viewBox="0 0 3400 2600">
<rect width="100%" height="100%" fill="#ffffff"/>
<defs><marker id="arrow" markerWidth="12" markerHeight="12" refX="10" refY="6" orient="auto"><path d="M0,0 L12,6 L0,12 z" fill="#111111"/></marker></defs>
<text x="90" y="70" fill="#111111" font-family="Arial, Helvetica, sans-serif" font-size="48" font-weight="700" text-anchor="start" dominant-baseline="auto">ESP32 LED Controller v6 — Electrical Schematic</text>
<text x="90" y="118" fill="#555555" font-family="Arial, Helvetica, sans-serif" font-size="24" font-weight="400" text-anchor="start" dominant-baseline="auto">Conventional symbol view; net names and AHCT125N pin numbers are the source of truth.</text>
<text x="90" y="155" fill="#9b1c1c" font-family="Arial, Helvetica, sans-serif" font-size="26" font-weight="700" text-anchor="start" dominant-baseline="auto">Critical: U1 pins 10 and 13 are /OE3 and /OE4. Tie them to +5V_LOGIC to disable unused channels.</text>
<line x1="80" y1="185" x2="3320" y2="185" stroke="#111111" stroke-width="3" stroke-linecap="round" fill="none"/>
<rect x="110" y="280" width="300" height="175" fill="#ffffff" stroke="#111111" stroke-width="4"/>
<text x="260" y="258" fill="#111111" font-family="Arial, Helvetica, sans-serif" font-size="24" font-weight="700" text-anchor="middle" dominant-baseline="auto">J3  12V IN</text>
<circle cx="136" cy="315" r="8" fill="#ffffff" stroke="#111111" stroke-width="4"/>
<line x1="30" y1="315" x2="128" y2="315" stroke="#111111" stroke-width="4" stroke-linecap="round" fill="none"/>
<text x="164" y="323" fill="#111111" font-family="Arial, Helvetica, sans-serif" font-size="22" font-weight="700" text-anchor="start" dominant-baseline="auto">1  +12V_IN</text>
<circle cx="136" cy="420" r="8" fill="#ffffff" stroke="#111111" stroke-width="4"/>
<line x1="30" y1="420" x2="128" y2="420" stroke="#111111" stroke-width="4" stroke-linecap="round" fill="none"/>
<text x="164" y="428" fill="#111111" font-family="Arial, Helvetica, sans-serif" font-size="22" font-weight="400" text-anchor="start" dominant-baseline="auto">2  GND</text>
<line x1="330" y1="315" x2="430" y2="315" stroke="#111111" stroke-width="4" stroke-linecap="round" fill="none"/>
<line x1="430" y1="315" x2="474" y2="315" stroke="#111111" stroke-width="4" stroke-linecap="round" fill="none"/>
<rect x="474" y="281" width="192" height="68" fill="#ffffff" stroke="#111111" stroke-width="4"/>
<polyline points="496,315 540,295 584,335 628,315" stroke="#111111" stroke-width="4" stroke-linecap="round" stroke-linejoin="round" fill="none"/>
<line x1="666" y1="315" x2="710" y2="315" stroke="#111111" stroke-width="4" stroke-linecap="round" fill="none"/>
<text x="570.0" y="253" fill="#111111" font-family="Arial, Helvetica, sans-serif" font-size="22" font-weight="700" text-anchor="middle" dominant-baseline="auto">F1</text>
<text x="570.0" y="387" fill="#555555" font-family="Arial, Helvetica, sans-serif" font-size="20" font-weight="400" text-anchor="middle" dominant-baseline="auto">7.5 A blade, off-board</text>
<line x1="760" y1="315" x2="843.0" y2="315" stroke="#111111" stroke-width="4" stroke-linecap="round" fill="none"/>
<polygon points="843.0,273 843.0,357 905.0,315" fill="#ffffff" stroke="#111111" stroke-width="4" stroke-linejoin="round"/>
<line x1="910.0" y1="265" x2="910.0" y2="365" stroke="#111111" stroke-width="5" stroke-linecap="round" fill="none"/>
<line x1="910.0" y1="265" x2="927.0" y2="281" stroke="#111111" stroke-width="4" stroke-linecap="round" fill="none"/>
<line x1="910.0" y1="365" x2="893.0" y2="349" stroke="#111111" stroke-width="4" stroke-linecap="round" fill="none"/>
<line x1="910.0" y1="315" x2="1010" y2="315" stroke="#111111" stroke-width="4" stroke-linecap="round" fill="none"/>
<text x="885.0" y="245" fill="#111111" font-family="Arial, Helvetica, sans-serif" font-size="22" font-weight="700" text-anchor="middle" dominant-baseline="auto">D1 / RP1</text>
<text x="885.0" y="401" fill="#555555" font-family="Arial, Helvetica, sans-serif" font-size="20" font-weight="400" text-anchor="middle" dominant-baseline="auto">1N5822 only for current-limited proto</text>
<line x1="1010" y1="315" x2="3030" y2="315" stroke="#111111" stroke-width="4" stroke-linecap="round" fill="none"/>
<polygon points="1115,315 1135,296.0 1345,296.0 1345,334.0 1135,334.0" fill="#ffffff" stroke="#9b1c1c" stroke-width="3" stroke-linejoin="round"/>
<text x="1143" y="323" fill="#9b1c1c" font-family="Arial, Helvetica, sans-serif" font-size="20" font-weight="700" text-anchor="start" dominant-baseline="auto">+12V_PROTECTED</text>
<line x1="330" y1="420" x2="3030" y2="420" stroke="#111111" stroke-width="4" stroke-linecap="round" fill="none"/>
<polygon points="1120,420 1140,401.0 1294,401.0 1294,439.0 1140,439.0" fill="#ffffff" stroke="#111111" stroke-width="3" stroke-linejoin="round"/>
<text x="1148" y="428" fill="#111111" font-family="Arial, Helvetica, sans-serif" font-size="20" font-weight="700" text-anchor="start" dominant-baseline="auto">GND_COMMON</text>
<circle cx="330" cy="315" r="9" fill="#111111" stroke="#111111" stroke-width="2"/>
<circle cx="330" cy="420" r="9" fill="#111111" stroke="#111111" stroke-width="2"/>
<line x1="1250" y1="315" x2="1250" y2="520" stroke="#111111" stroke-width="4" stroke-linecap="round" fill="none"/>
<line x1="1250" y1="520" x2="1250" y2="595.0" stroke="#111111" stroke-width="4" stroke-linecap="round" fill="none"/>
<line x1="1208" y1="595.0" x2="1292" y2="595.0" stroke="#111111" stroke-width="5" stroke-linecap="round" fill="none"/>
<line x1="1208" y1="665.0" x2="1292" y2="665.0" stroke="#111111" stroke-width="5" stroke-linecap="round" fill="none"/>
<line x1="1250" y1="665.0" x2="1250" y2="740" stroke="#111111" stroke-width="4" stroke-linecap="round" fill="none"/>
<text x="1302" y="582.0" fill="#111111" font-family="Arial, Helvetica, sans-serif" font-size="34" font-weight="700" text-anchor="start" dominant-baseline="auto">+</text>
<text x="1320" y="618.0" fill="#111111" font-family="Arial, Helvetica, sans-serif" font-size="22" font-weight="700" text-anchor="start" dominant-baseline="middle">C1</text>
<text x="1320" y="654.0" fill="#555555" font-family="Arial, Helvetica, sans-serif" font-size="20" font-weight="400" text-anchor="start" dominant-baseline="middle">1000µF / 25V</text>
<line x1="1250" y1="740" x2="1250" y2="420" stroke="#111111" stroke-width="4" stroke-linecap="round" fill="none"/>
<circle cx="1250" cy="315" r="9" fill="#111111" stroke="#111111" stroke-width="2"/>
<circle cx="1250" cy="420" r="9" fill="#111111" stroke="#111111" stroke-width="2"/>
<line x1="1510" y1="315" x2="1510" y2="540" stroke="#111111" stroke-width="4" stroke-linecap="round" fill="none"/>
<line x1="1510" y1="540" x2="1510" y2="575" stroke="#111111" stroke-width="4" stroke-linecap="round" fill="none"/>
<line x1="1510" y1="655" x2="1510" y2="690" stroke="#111111" stroke-width="4" stroke-linecap="round" fill="none"/>
<polyline points="1510,575 1486,581.6666666666666 1534,588.3333333333334 1486,595.0 1534,601.6666666666666 1486,608.3333333333334 1534,615.0 1486,621.6666666666666 1534,628.3333333333334 1486,635.0 1534,641.6666666666666 1486,648.3333333333334 1510,655" stroke="#111111" stroke-width="4" stroke-linecap="round" stroke-linejoin="round" fill="none"/>
<text x="1568" y="603.0" fill="#111111" font-family="Arial, Helvetica, sans-serif" font-size="22" font-weight="700" text-anchor="start" dominant-baseline="middle">R4</text>
<text x="1568" y="637.0" fill="#555555" font-family="Arial, Helvetica, sans-serif" font-size="20" font-weight="400" text-anchor="start" dominant-baseline="middle">1k</text>
<line x1="1510" y1="690" x2="1510" y2="716" stroke="#111111" stroke-width="4" stroke-linecap="round" fill="none"/>
<polygon points="1474,716 1546,716 1510,788" fill="#ffffff" stroke="#111111" stroke-width="4" stroke-linejoin="round"/>
<line x1="1468" y1="794" x2="1552" y2="794" stroke="#111111" stroke-width="5" stroke-linecap="round" fill="none"/>
<line x1="1560" y1="728" x2="1602" y2="692" stroke="#111111" stroke-width="3" stroke-linecap="round" fill="none" marker-end="url(#arrow)"/>
<line x1="1574" y1="760" x2="1616" y2="724" stroke="#111111" stroke-width="3" stroke-linecap="round" fill="none" marker-end="url(#arrow)"/>
<line x1="1510" y1="794" x2="1510" y2="790" stroke="#111111" stroke-width="4" stroke-linecap="round" fill="none"/>
<text x="1580" y="755" fill="#111111" font-family="Arial, Helvetica, sans-serif" font-size="20" font-weight="700" text-anchor="start" dominant-baseline="middle">LED2 green</text>
<line x1="1510" y1="790" x2="1510" y2="420" stroke="#111111" stroke-width="4" stroke-linecap="round" fill="none"/>
<circle cx="1510" cy="315" r="9" fill="#111111" stroke="#111111" stroke-width="2"/>
<circle cx="1510" cy="420" r="9" fill="#111111" stroke="#111111" stroke-width="2"/>
<rect x="560" y="770" width="460" height="620" fill="#ffffff" stroke="#111111" stroke-width="4"/>
<text x="790" y="815" fill="#111111" font-family="Arial, Helvetica, sans-serif" font-size="30" font-weight="700" text-anchor="middle" dominant-baseline="auto">ESP32 DevKit V1</text>
<text x="790" y="858" fill="#555555" font-family="Arial, Helvetica, sans-serif" font-size="22" font-weight="400" text-anchor="middle" dominant-baseline="auto">USB-C powered only</text>
<line x1="1020" y1="920" x2="1100" y2="920" stroke="#111111" stroke-width="4" stroke-linecap="round" fill="none"/>
<circle cx="1020" cy="920" r="7" fill="#ffffff" stroke="#111111" stroke-width="3"/>
<text x="860" y="928" fill="#111111" font-family="Arial, Helvetica, sans-serif" font-size="22" font-weight="700" text-anchor="start" dominant-baseline="auto">VIN/5V</text>
<line x1="1020" y1="1000" x2="1100" y2="1000" stroke="#111111" stroke-width="4" stroke-linecap="round" fill="none"/>
<circle cx="1020" cy="1000" r="7" fill="#ffffff" stroke="#111111" stroke-width="3"/>
<text x="860" y="1008" fill="#111111" font-family="Arial, Helvetica, sans-serif" font-size="22" font-weight="700" text-anchor="start" dominant-baseline="auto">GND</text>
<line x1="1020" y1="1100" x2="1100" y2="1100" stroke="#111111" stroke-width="4" stroke-linecap="round" fill="none"/>
<circle cx="1020" cy="1100" r="7" fill="#ffffff" stroke="#111111" stroke-width="3"/>
<text x="860" y="1108" fill="#111111" font-family="Arial, Helvetica, sans-serif" font-size="22" font-weight="700" text-anchor="start" dominant-baseline="auto">GPIO25</text>
<line x1="1020" y1="1200" x2="1100" y2="1200" stroke="#111111" stroke-width="4" stroke-linecap="round" fill="none"/>
<circle cx="1020" cy="1200" r="7" fill="#ffffff" stroke="#111111" stroke-width="3"/>
<text x="860" y="1208" fill="#111111" font-family="Arial, Helvetica, sans-serif" font-size="22" font-weight="700" text-anchor="start" dominant-baseline="auto">GPIO26</text>
<line x1="1020" y1="1300" x2="1100" y2="1300" stroke="#111111" stroke-width="4" stroke-linecap="round" fill="none"/>
<circle cx="1020" cy="1300" r="7" fill="#ffffff" stroke="#111111" stroke-width="3"/>
<text x="860" y="1308" fill="#111111" font-family="Arial, Helvetica, sans-serif" font-size="22" font-weight="700" text-anchor="start" dominant-baseline="auto">GPIO27</text>
<polygon points="1170,920 1190,901.0 1330,901.0 1330,939.0 1190,939.0" fill="#ffffff" stroke="#0f4c81" stroke-width="3" stroke-linejoin="round"/>
<text x="1198" y="928" fill="#0f4c81" font-family="Arial, Helvetica, sans-serif" font-size="20" font-weight="700" text-anchor="start" dominant-baseline="auto">+5V_LOGIC</text>
<text x="1170" y="972" fill="#9b1c1c" font-family="Arial, Helvetica, sans-serif" font-size="19" font-weight="400" text-anchor="start" dominant-baseline="auto">from ESP32 USB/VIN only — do not backfeed</text>
<line x1="1100" y1="920" x2="1170" y2="920" stroke="#111111" stroke-width="4" stroke-linecap="round" fill="none"/>
<line x1="1100" y1="1000" x2="1160" y2="1000" stroke="#111111" stroke-width="4" stroke-linecap="round" fill="none"/>
<line x1="1160" y1="1000" x2="1160" y2="1018" stroke="#111111" stroke-width="4" stroke-linecap="round" fill="none"/>
<line x1="1126" y1="1018" x2="1194" y2="1018" stroke="#111111" stroke-width="4" stroke-linecap="round" fill="none"/>
<line x1="1136" y1="1031" x2="1184" y2="1031" stroke="#111111" stroke-width="4" stroke-linecap="round" fill="none"/>
<line x1="1148" y1="1044" x2="1172" y2="1044" stroke="#111111" stroke-width="4" stroke-linecap="round" fill="none"/>
<text x="1206" y="1036" fill="#555555" font-family="Arial, Helvetica, sans-serif" font-size="20" font-weight="400" text-anchor="start" dominant-baseline="middle">to GND_COMMON</text>
<polyline points="1680,420 1680,705 1120,705 1120,1000" stroke="#111111" stroke-width="4" stroke-linecap="round" stroke-linejoin="round" fill="none" stroke-dasharray="10 10"/>
<text x="1710" y="675" fill="#555555" font-family="Arial, Helvetica, sans-serif" font-size="20" font-weight="400" text-anchor="start" dominant-baseline="auto">single low-current common-ground reference</text>
<line x1="1120" y1="1000" x2="1120" y2="1018" stroke="#111111" stroke-width="4" stroke-linecap="round" fill="none"/>
<line x1="1086" y1="1018" x2="1154" y2="1018" stroke="#111111" stroke-width="4" stroke-linecap="round" fill="none"/>
<line x1="1096" y1="1031" x2="1144" y2="1031" stroke="#111111" stroke-width="4" stroke-linecap="round" fill="none"/>
<line x1="1108" y1="1044" x2="1132" y2="1044" stroke="#111111" stroke-width="4" stroke-linecap="round" fill="none"/>
<polyline points="1100,1300 480,1300 480,1530" stroke="#111111" stroke-width="4" stroke-linecap="round" stroke-linejoin="round" fill="none"/>
<line x1="480" y1="1530" x2="480" y2="1565" stroke="#111111" stroke-width="4" stroke-linecap="round" fill="none"/>
<line x1="480" y1="1655" x2="480" y2="1690" stroke="#111111" stroke-width="4" stroke-linecap="round" fill="none"/>
<polyline points="480,1565 456,1572.5 504,1580.0 456,1587.5 504,1595.0 456,1602.5 504,1610.0 456,1617.5 504,1625.0 456,1632.5 504,1640.0 456,1647.5 480,1655" stroke="#111111" stroke-width="4" stroke-linecap="round" stroke-linejoin="round" fill="none"/>
<text x="538" y="1598.0" fill="#111111" font-family="Arial, Helvetica, sans-serif" font-size="22" font-weight="700" text-anchor="start" dominant-baseline="middle">R3</text>
<text x="538" y="1632.0" fill="#555555" font-family="Arial, Helvetica, sans-serif" font-size="20" font-weight="400" text-anchor="start" dominant-baseline="middle">220Ω</text>
<line x1="480" y1="1690" x2="480" y2="1710" stroke="#111111" stroke-width="4" stroke-linecap="round" fill="none"/>
<polygon points="444,1710 516,1710 480,1780" fill="#ffffff" stroke="#111111" stroke-width="4" stroke-linejoin="round"/>
<line x1="438" y1="1787" x2="522" y2="1787" stroke="#111111" stroke-width="5" stroke-linecap="round" fill="none"/>
<line x1="530" y1="1720" x2="570" y2="1683" stroke="#111111" stroke-width="3" stroke-linecap="round" fill="none" marker-end="url(#arrow)"/>
<line x1="544" y1="1753" x2="584" y2="1715" stroke="#111111" stroke-width="3" stroke-linecap="round" fill="none" marker-end="url(#arrow)"/>
<text x="565" y="1765" fill="#111111" font-family="Arial, Helvetica, sans-serif" font-size="20" font-weight="700" text-anchor="start">
<tspan x="565" dy="0">LED1 red</tspan>
<tspan x="565" dy="25">status</tspan>
</text>
<line x1="480" y1="1787" x2="480" y2="1900" stroke="#111111" stroke-width="4" stroke-linecap="round" fill="none"/>
<line x1="480" y1="1900" x2="480" y2="1918" stroke="#111111" stroke-width="4" stroke-linecap="round" fill="none"/>
<line x1="446" y1="1918" x2="514" y2="1918" stroke="#111111" stroke-width="4" stroke-linecap="round" fill="none"/>
<line x1="456" y1="1931" x2="504" y2="1931" stroke="#111111" stroke-width="4" stroke-linecap="round" fill="none"/>
<line x1="468" y1="1944" x2="492" y2="1944" stroke="#111111" stroke-width="4" stroke-linecap="round" fill="none"/>
<polygon points="1490,1040 1490,1160 1640,1100" fill="#ffffff" stroke="#111111" stroke-width="4" stroke-linejoin="round"/>
<text x="1565" y="1110" fill="#111111" font-family="Arial, Helvetica, sans-serif" font-size="22" font-weight="700" text-anchor="middle" dominant-baseline="middle">U1A</text>
<text x="1448" y="1084" fill="#555555" font-family="Arial, Helvetica, sans-serif" font-size="18" font-weight="400" text-anchor="end" dominant-baseline="auto">2  1A</text>
<text x="1662" y="1084" fill="#555555" font-family="Arial, Helvetica, sans-serif" font-size="18" font-weight="400" text-anchor="start" dominant-baseline="auto">3  1Y</text>
<line x1="1420" y1="1100" x2="1490" y2="1100" stroke="#111111" stroke-width="4" stroke-linecap="round" fill="none"/>
<line x1="1640" y1="1100" x2="1725" y2="1100" stroke="#111111" stroke-width="4" stroke-linecap="round" fill="none"/>
<line x1="1570" y1="1208" x2="1570" y2="1148" stroke="#111111" stroke-width="4" stroke-linecap="round" fill="none"/>
<text x="1588" y="1204" fill="#555555" font-family="Arial, Helvetica, sans-serif" font-size="18" font-weight="400" text-anchor="start" dominant-baseline="auto">/OE1 pin 1</text>
<line x1="1570" y1="1208" x2="1570" y2="1226" stroke="#111111" stroke-width="4" stroke-linecap="round" fill="none"/>
<line x1="1536" y1="1226" x2="1604" y2="1226" stroke="#111111" stroke-width="4" stroke-linecap="round" fill="none"/>
<line x1="1546" y1="1239" x2="1594" y2="1239" stroke="#111111" stroke-width="4" stroke-linecap="round" fill="none"/>
<line x1="1558" y1="1252" x2="1582" y2="1252" stroke="#111111" stroke-width="4" stroke-linecap="round" fill="none"/>
<text x="1616" y="1244" fill="#555555" font-family="Arial, Helvetica, sans-serif" font-size="20" font-weight="400" text-anchor="start" dominant-baseline="middle">LOW = enabled</text>
<polygon points="1490,1310 1490,1430 1640,1370" fill="#ffffff" stroke="#111111" stroke-width="4" stroke-linejoin="round"/>
<text x="1565" y="1380" fill="#111111" font-family="Arial, Helvetica, sans-serif" font-size="22" font-weight="700" text-anchor="middle" dominant-baseline="middle">U1B</text>
<text x="1448" y="1354" fill="#555555" font-family="Arial, Helvetica, sans-serif" font-size="18" font-weight="400" text-anchor="end" dominant-baseline="auto">5  2A</text>
<text x="1662" y="1354" fill="#555555" font-family="Arial, Helvetica, sans-serif" font-size="18" font-weight="400" text-anchor="start" dominant-baseline="auto">6  2Y</text>
<line x1="1420" y1="1370" x2="1490" y2="1370" stroke="#111111" stroke-width="4" stroke-linecap="round" fill="none"/>
<line x1="1640" y1="1370" x2="1725" y2="1370" stroke="#111111" stroke-width="4" stroke-linecap="round" fill="none"/>
<line x1="1570" y1="1478" x2="1570" y2="1418" stroke="#111111" stroke-width="4" stroke-linecap="round" fill="none"/>
<text x="1588" y="1474" fill="#555555" font-family="Arial, Helvetica, sans-serif" font-size="18" font-weight="400" text-anchor="start" dominant-baseline="auto">/OE2 pin 4</text>
<line x1="1570" y1="1478" x2="1570" y2="1496" stroke="#111111" stroke-width="4" stroke-linecap="round" fill="none"/>
<line x1="1536" y1="1496" x2="1604" y2="1496" stroke="#111111" stroke-width="4" stroke-linecap="round" fill="none"/>
<line x1="1546" y1="1509" x2="1594" y2="1509" stroke="#111111" stroke-width="4" stroke-linecap="round" fill="none"/>
<line x1="1558" y1="1522" x2="1582" y2="1522" stroke="#111111" stroke-width="4" stroke-linecap="round" fill="none"/>
<text x="1616" y="1514" fill="#555555" font-family="Arial, Helvetica, sans-serif" font-size="20" font-weight="400" text-anchor="start" dominant-baseline="middle">LOW = enabled</text>
<polyline points="1100,1100 1320,1100 1320,1100 1420,1100" stroke="#111111" stroke-width="4" stroke-linecap="round" stroke-linejoin="round" fill="none"/>
<text x="1265" y="1078" fill="#555555" font-family="Arial, Helvetica, sans-serif" font-size="20" font-weight="400" text-anchor="end" dominant-baseline="auto">GPIO25</text>
<polyline points="1100,1200 1280,1200 1280,1370 1420,1370" stroke="#111111" stroke-width="4" stroke-linecap="round" stroke-linejoin="round" fill="none"/>
<text x="1265" y="1348" fill="#555555" font-family="Arial, Helvetica, sans-serif" font-size="20" font-weight="400" text-anchor="end" dominant-baseline="auto">GPIO26</text>
<line x1="1725" y1="1100" x2="1765" y2="1100" stroke="#111111" stroke-width="4" stroke-linecap="round" fill="none"/>
<line x1="2130" y1="1100" x2="2170" y2="1100" stroke="#111111" stroke-width="4" stroke-linecap="round" fill="none"/>
<polyline points="1765,1100 1795.4166666666667,1074 1825.8333333333333,1126 1856.25,1074 1886.6666666666667,1126 1917.0833333333333,1074 1947.5,1126 1977.9166666666667,1074 2008.3333333333333,1126 2038.75,1074 2069.1666666666665,1126 2099.5833333333335,1074 2130,1100" stroke="#111111" stroke-width="4" stroke-linecap="round" stroke-linejoin="round" fill="none"/>
<text x="1947.5" y="1048" fill="#111111" font-family="Arial, Helvetica, sans-serif" font-size="22" font-weight="700" text-anchor="middle" dominant-baseline="auto">R1</text>
<text x="1947.5" y="1170" fill="#555555" font-family="Arial, Helvetica, sans-serif" font-size="20" font-weight="400" text-anchor="middle" dominant-baseline="auto">470Ω</text>
<line x1="1725" y1="1370" x2="1765" y2="1370" stroke="#111111" stroke-width="4" stroke-linecap="round" fill="none"/>
<line x1="2130" y1="1370" x2="2170" y2="1370" stroke="#111111" stroke-width="4" stroke-linecap="round" fill="none"/>
<polyline points="1765,1370 1795.4166666666667,1344 1825.8333333333333,1396 1856.25,1344 1886.6666666666667,1396 1917.0833333333333,1344 1947.5,1396 1977.9166666666667,1344 2008.3333333333333,1396 2038.75,1344 2069.1666666666665,1396 2099.5833333333335,1344 2130,1370" stroke="#111111" stroke-width="4" stroke-linecap="round" stroke-linejoin="round" fill="none"/>
<text x="1947.5" y="1318" fill="#111111" font-family="Arial, Helvetica, sans-serif" font-size="22" font-weight="700" text-anchor="middle" dominant-baseline="auto">R2</text>
<text x="1947.5" y="1440" fill="#555555" font-family="Arial, Helvetica, sans-serif" font-size="20" font-weight="400" text-anchor="middle" dominant-baseline="auto">470Ω</text>
<polygon points="2220,1100 2240,1081.0 2370,1081.0 2370,1119.0 2240,1119.0" fill="#ffffff" stroke="#0b6b3a" stroke-width="3" stroke-linejoin="round"/>
<text x="2248" y="1108" fill="#0b6b3a" font-family="Arial, Helvetica, sans-serif" font-size="20" font-weight="700" text-anchor="start" dominant-baseline="auto">J1_DATA</text>
<polygon points="2220,1370 2240,1351.0 2370,1351.0 2370,1389.0 2240,1389.0" fill="#ffffff" stroke="#0b6b3a" stroke-width="3" stroke-linejoin="round"/>
<text x="2248" y="1378" fill="#0b6b3a" font-family="Arial, Helvetica, sans-serif" font-size="20" font-weight="700" text-anchor="start" dominant-baseline="auto">J2_DATA</text>
<rect x="1975" y="650" width="410" height="230" fill="#ffffff" stroke="#111111" stroke-width="4"/>
<text x="2180" y="690" fill="#111111" font-family="Arial, Helvetica, sans-serif" font-size="24" font-weight="700" text-anchor="middle" dominant-baseline="auto">U1 power</text>
<text x="2010" y="745" fill="#111111" font-family="Arial, Helvetica, sans-serif" font-size="22" font-weight="700" text-anchor="start" dominant-baseline="auto">pin 14 VCC</text>
<text x="2010" y="820" fill="#111111" font-family="Arial, Helvetica, sans-serif" font-size="22" font-weight="700" text-anchor="start" dominant-baseline="auto">pin 7 GND</text>
<line x1="2385" y1="740" x2="2480" y2="740" stroke="#111111" stroke-width="4" stroke-linecap="round" fill="none"/>
<polygon points="2480,740 2500,721.0 2640,721.0 2640,759.0 2500,759.0" fill="#ffffff" stroke="#0f4c81" stroke-width="3" stroke-linejoin="round"/>
<text x="2508" y="748" fill="#0f4c81" font-family="Arial, Helvetica, sans-serif" font-size="20" font-weight="700" text-anchor="start" dominant-baseline="auto">+5V_LOGIC</text>
<line x1="2385" y1="815" x2="2480" y2="815" stroke="#111111" stroke-width="4" stroke-linecap="round" fill="none"/>
<line x1="2480" y1="815" x2="2480" y2="833" stroke="#111111" stroke-width="4" stroke-linecap="round" fill="none"/>
<line x1="2446" y1="833" x2="2514" y2="833" stroke="#111111" stroke-width="4" stroke-linecap="round" fill="none"/>
<line x1="2456" y1="846" x2="2504" y2="846" stroke="#111111" stroke-width="4" stroke-linecap="round" fill="none"/>
<line x1="2468" y1="859" x2="2492" y2="859" stroke="#111111" stroke-width="4" stroke-linecap="round" fill="none"/>
<line x1="2650" y1="650" x2="2650" y2="700.0" stroke="#111111" stroke-width="4" stroke-linecap="round" fill="none"/>
<line x1="2608" y1="700.0" x2="2692" y2="700.0" stroke="#111111" stroke-width="5" stroke-linecap="round" fill="none"/>
<line x1="2608" y1="770.0" x2="2692" y2="770.0" stroke="#111111" stroke-width="5" stroke-linecap="round" fill="none"/>
<line x1="2650" y1="770.0" x2="2650" y2="820" stroke="#111111" stroke-width="4" stroke-linecap="round" fill="none"/>
<text x="2720" y="723.0" fill="#111111" font-family="Arial, Helvetica, sans-serif" font-size="22" font-weight="700" text-anchor="start" dominant-baseline="middle">C2</text>
<text x="2720" y="759.0" fill="#555555" font-family="Arial, Helvetica, sans-serif" font-size="20" font-weight="400" text-anchor="start" dominant-baseline="middle">0.1µF</text>
<line x1="2820" y1="650" x2="2820" y2="700.0" stroke="#111111" stroke-width="4" stroke-linecap="round" fill="none"/>
<line x1="2778" y1="700.0" x2="2862" y2="700.0" stroke="#111111" stroke-width="5" stroke-linecap="round" fill="none"/>
<line x1="2778" y1="770.0" x2="2862" y2="770.0" stroke="#111111" stroke-width="5" stroke-linecap="round" fill="none"/>
<line x1="2820" y1="770.0" x2="2820" y2="820" stroke="#111111" stroke-width="4" stroke-linecap="round" fill="none"/>
<text x="2890" y="723.0" fill="#111111" font-family="Arial, Helvetica, sans-serif" font-size="22" font-weight="700" text-anchor="start" dominant-baseline="middle">C3</text>
<text x="2890" y="759.0" fill="#555555" font-family="Arial, Helvetica, sans-serif" font-size="20" font-weight="400" text-anchor="start" dominant-baseline="middle">10µF</text>
<line x1="2650" y1="650" x2="2820" y2="650" stroke="#111111" stroke-width="4" stroke-linecap="round" fill="none"/>
<line x1="2650" y1="820" x2="2820" y2="820" stroke="#111111" stroke-width="4" stroke-linecap="round" fill="none"/>
<polygon points="2650,650 2630,631.0 2490,631.0 2490,669.0 2630,669.0" fill="#ffffff" stroke="#0f4c81" stroke-width="3" stroke-linejoin="round"/>
<text x="2502" y="658" fill="#0f4c81" font-family="Arial, Helvetica, sans-serif" font-size="20" font-weight="700" text-anchor="start" dominant-baseline="auto">+5V_LOGIC</text>
<line x1="2820" y1="820" x2="2820" y2="838" stroke="#111111" stroke-width="4" stroke-linecap="round" fill="none"/>
<line x1="2786" y1="838" x2="2854" y2="838" stroke="#111111" stroke-width="4" stroke-linecap="round" fill="none"/>
<line x1="2796" y1="851" x2="2844" y2="851" stroke="#111111" stroke-width="4" stroke-linecap="round" fill="none"/>
<line x1="2808" y1="864" x2="2832" y2="864" stroke="#111111" stroke-width="4" stroke-linecap="round" fill="none"/>
<text x="2866" y="856" fill="#555555" font-family="Arial, Helvetica, sans-serif" font-size="20" font-weight="400" text-anchor="start" dominant-baseline="middle">decouple at U1</text>
<text x="1180" y="1570" fill="#111111" font-family="Arial, Helvetica, sans-serif" font-size="26" font-weight="700" text-anchor="start" dominant-baseline="auto">Unused AHCT125 channels — disabled, inputs defined</text>
<polygon points="1490,1620 1490,1740 1640,1680" fill="#ffffff" stroke="#111111" stroke-width="4" stroke-linejoin="round"/>
<text x="1565" y="1690" fill="#111111" font-family="Arial, Helvetica, sans-serif" font-size="22" font-weight="700" text-anchor="middle" dominant-baseline="middle">U1C</text>
<text x="1448" y="1664" fill="#555555" font-family="Arial, Helvetica, sans-serif" font-size="18" font-weight="400" text-anchor="end" dominant-baseline="auto">9  3A</text>
<text x="1662" y="1664" fill="#555555" font-family="Arial, Helvetica, sans-serif" font-size="18" font-weight="400" text-anchor="start" dominant-baseline="auto">8  3Y</text>
<line x1="1420" y1="1680" x2="1490" y2="1680" stroke="#111111" stroke-width="4" stroke-linecap="round" fill="none"/>
<line x1="1640" y1="1680" x2="1725" y2="1680" stroke="#111111" stroke-width="4" stroke-linecap="round" fill="none"/>
<line x1="1570" y1="1788" x2="1570" y2="1728" stroke="#111111" stroke-width="4" stroke-linecap="round" fill="none"/>
<text x="1588" y="1784" fill="#555555" font-family="Arial, Helvetica, sans-serif" font-size="18" font-weight="400" text-anchor="start" dominant-baseline="auto">/OE3 pin 10</text>
<line x1="1570" y1="1788" x2="1570" y2="1830" stroke="#111111" stroke-width="4" stroke-linecap="round" fill="none"/>
<polygon points="1570,1830 1550,1811.0 1410,1811.0 1410,1849.0 1550,1849.0" fill="#ffffff" stroke="#0f4c81" stroke-width="3" stroke-linejoin="round"/>
<text x="1422" y="1838" fill="#0f4c81" font-family="Arial, Helvetica, sans-serif" font-size="20" font-weight="700" text-anchor="start" dominant-baseline="auto">+5V_LOGIC</text>
<text x="1650" y="1830" fill="#555555" font-family="Arial, Helvetica, sans-serif" font-size="18" font-weight="400" text-anchor="start" dominant-baseline="middle">HIGH = disabled</text>
<text x="1570" y="1602" fill="#555555" font-family="Arial, Helvetica, sans-serif" font-size="18" font-weight="400" text-anchor="middle" dominant-baseline="auto">unused channel</text>
<polygon points="1490,1880 1490,2000 1640,1940" fill="#ffffff" stroke="#111111" stroke-width="4" stroke-linejoin="round"/>
<text x="1565" y="1950" fill="#111111" font-family="Arial, Helvetica, sans-serif" font-size="22" font-weight="700" text-anchor="middle" dominant-baseline="middle">U1D</text>
<text x="1448" y="1924" fill="#555555" font-family="Arial, Helvetica, sans-serif" font-size="18" font-weight="400" text-anchor="end" dominant-baseline="auto">12  4A</text>
<text x="1662" y="1924" fill="#555555" font-family="Arial, Helvetica, sans-serif" font-size="18" font-weight="400" text-anchor="start" dominant-baseline="auto">11  4Y</text>
<line x1="1420" y1="1940" x2="1490" y2="1940" stroke="#111111" stroke-width="4" stroke-linecap="round" fill="none"/>
<line x1="1640" y1="1940" x2="1725" y2="1940" stroke="#111111" stroke-width="4" stroke-linecap="round" fill="none"/>
<line x1="1570" y1="2048" x2="1570" y2="1988" stroke="#111111" stroke-width="4" stroke-linecap="round" fill="none"/>
<text x="1588" y="2044" fill="#555555" font-family="Arial, Helvetica, sans-serif" font-size="18" font-weight="400" text-anchor="start" dominant-baseline="auto">/OE4 pin 13</text>
<line x1="1570" y1="2048" x2="1570" y2="2090" stroke="#111111" stroke-width="4" stroke-linecap="round" fill="none"/>
<polygon points="1570,2090 1550,2071.0 1410,2071.0 1410,2109.0 1550,2109.0" fill="#ffffff" stroke="#0f4c81" stroke-width="3" stroke-linejoin="round"/>
<text x="1422" y="2098" fill="#0f4c81" font-family="Arial, Helvetica, sans-serif" font-size="20" font-weight="700" text-anchor="start" dominant-baseline="auto">+5V_LOGIC</text>
<text x="1650" y="2090" fill="#555555" font-family="Arial, Helvetica, sans-serif" font-size="18" font-weight="400" text-anchor="start" dominant-baseline="middle">HIGH = disabled</text>
<text x="1570" y="1862" fill="#555555" font-family="Arial, Helvetica, sans-serif" font-size="18" font-weight="400" text-anchor="middle" dominant-baseline="auto">unused channel</text>
<line x1="1420" y1="1680" x2="1340" y2="1680" stroke="#111111" stroke-width="4" stroke-linecap="round" fill="none"/>
<line x1="1340" y1="1680" x2="1340" y2="1698" stroke="#111111" stroke-width="4" stroke-linecap="round" fill="none"/>
<line x1="1306" y1="1698" x2="1374" y2="1698" stroke="#111111" stroke-width="4" stroke-linecap="round" fill="none"/>
<line x1="1316" y1="1711" x2="1364" y2="1711" stroke="#111111" stroke-width="4" stroke-linecap="round" fill="none"/>
<line x1="1328" y1="1724" x2="1352" y2="1724" stroke="#111111" stroke-width="4" stroke-linecap="round" fill="none"/>
<text x="1304" y="1656" fill="#555555" font-family="Arial, Helvetica, sans-serif" font-size="18" font-weight="400" text-anchor="end" dominant-baseline="auto">3A low</text>
<line x1="1420" y1="1940" x2="1340" y2="1940" stroke="#111111" stroke-width="4" stroke-linecap="round" fill="none"/>
<line x1="1340" y1="1940" x2="1340" y2="1958" stroke="#111111" stroke-width="4" stroke-linecap="round" fill="none"/>
<line x1="1306" y1="1958" x2="1374" y2="1958" stroke="#111111" stroke-width="4" stroke-linecap="round" fill="none"/>
<line x1="1316" y1="1971" x2="1364" y2="1971" stroke="#111111" stroke-width="4" stroke-linecap="round" fill="none"/>
<line x1="1328" y1="1984" x2="1352" y2="1984" stroke="#111111" stroke-width="4" stroke-linecap="round" fill="none"/>
<text x="1304" y="1916" fill="#555555" font-family="Arial, Helvetica, sans-serif" font-size="18" font-weight="400" text-anchor="end" dominant-baseline="auto">4A low</text>
<line x1="1744" y1="1664" x2="1776" y2="1696" stroke="#111111" stroke-width="3" stroke-linecap="round" fill="none"/>
<line x1="1744" y1="1696" x2="1776" y2="1664" stroke="#111111" stroke-width="3" stroke-linecap="round" fill="none"/>
<text x="1788" y="1688" fill="#555555" font-family="Arial, Helvetica, sans-serif" font-size="20" font-weight="400" text-anchor="start" dominant-baseline="auto">pin 8 NC</text>
<line x1="1744" y1="1924" x2="1776" y2="1956" stroke="#111111" stroke-width="3" stroke-linecap="round" fill="none"/>
<line x1="1744" y1="1956" x2="1776" y2="1924" stroke="#111111" stroke-width="3" stroke-linecap="round" fill="none"/>
<text x="1788" y="1948" fill="#555555" font-family="Arial, Helvetica, sans-serif" font-size="20" font-weight="400" text-anchor="start" dominant-baseline="auto">pin 11 NC</text>
<rect x="2890" y="870" width="300" height="226" fill="#ffffff" stroke="#111111" stroke-width="4"/>
<text x="3040" y="848" fill="#111111" font-family="Arial, Helvetica, sans-serif" font-size="24" font-weight="700" text-anchor="middle" dominant-baseline="auto">J1  LED OUT</text>
<circle cx="2916" cy="905" r="8" fill="#ffffff" stroke="#111111" stroke-width="4"/>
<line x1="2810" y1="905" x2="2908" y2="905" stroke="#111111" stroke-width="4" stroke-linecap="round" fill="none"/>
<text x="2944" y="913" fill="#111111" font-family="Arial, Helvetica, sans-serif" font-size="22" font-weight="700" text-anchor="start" dominant-baseline="auto">1  V+</text>
<circle cx="2916" cy="983" r="8" fill="#ffffff" stroke="#111111" stroke-width="4"/>
<line x1="2810" y1="983" x2="2908" y2="983" stroke="#111111" stroke-width="4" stroke-linecap="round" fill="none"/>
<text x="2944" y="991" fill="#111111" font-family="Arial, Helvetica, sans-serif" font-size="22" font-weight="400" text-anchor="start" dominant-baseline="auto">2  GND</text>
<circle cx="2916" cy="1061" r="8" fill="#ffffff" stroke="#111111" stroke-width="4"/>
<line x1="2810" y1="1061" x2="2908" y2="1061" stroke="#111111" stroke-width="4" stroke-linecap="round" fill="none"/>
<text x="2944" y="1069" fill="#111111" font-family="Arial, Helvetica, sans-serif" font-size="22" font-weight="400" text-anchor="start" dominant-baseline="auto">3  DATA</text>
<rect x="2890" y="1245" width="300" height="226" fill="#ffffff" stroke="#111111" stroke-width="4"/>
<text x="3040" y="1223" fill="#111111" font-family="Arial, Helvetica, sans-serif" font-size="24" font-weight="700" text-anchor="middle" dominant-baseline="auto">J2  LED OUT</text>
<circle cx="2916" cy="1280" r="8" fill="#ffffff" stroke="#111111" stroke-width="4"/>
<line x1="2810" y1="1280" x2="2908" y2="1280" stroke="#111111" stroke-width="4" stroke-linecap="round" fill="none"/>
<text x="2944" y="1288" fill="#111111" font-family="Arial, Helvetica, sans-serif" font-size="22" font-weight="700" text-anchor="start" dominant-baseline="auto">1  V+</text>
<circle cx="2916" cy="1358" r="8" fill="#ffffff" stroke="#111111" stroke-width="4"/>
<line x1="2810" y1="1358" x2="2908" y2="1358" stroke="#111111" stroke-width="4" stroke-linecap="round" fill="none"/>
<text x="2944" y="1366" fill="#111111" font-family="Arial, Helvetica, sans-serif" font-size="22" font-weight="400" text-anchor="start" dominant-baseline="auto">2  GND</text>
<circle cx="2916" cy="1436" r="8" fill="#ffffff" stroke="#111111" stroke-width="4"/>
<line x1="2810" y1="1436" x2="2908" y2="1436" stroke="#111111" stroke-width="4" stroke-linecap="round" fill="none"/>
<text x="2944" y="1444" fill="#111111" font-family="Arial, Helvetica, sans-serif" font-size="22" font-weight="400" text-anchor="start" dominant-baseline="auto">3  DATA</text>
<polyline points="2720,315 2720,905 2810,905" stroke="#111111" stroke-width="4" stroke-linecap="round" stroke-linejoin="round" fill="none"/>
<circle cx="2720" cy="315" r="9" fill="#111111" stroke="#111111" stroke-width="2"/>
<polyline points="2720,315 2720,1280 2810,1280" stroke="#111111" stroke-width="4" stroke-linecap="round" stroke-linejoin="round" fill="none"/>
<circle cx="2720" cy="315" r="9" fill="#111111" stroke="#111111" stroke-width="2"/>
<polyline points="2670,420 2670,983 2810,983" stroke="#111111" stroke-width="4" stroke-linecap="round" stroke-linejoin="round" fill="none"/>
<circle cx="2670" cy="420" r="9" fill="#111111" stroke="#111111" stroke-width="2"/>
<polyline points="2670,420 2670,1358 2810,1358" stroke="#111111" stroke-width="4" stroke-linecap="round" stroke-linejoin="round" fill="none"/>
<circle cx="2670" cy="420" r="9" fill="#111111" stroke="#111111" stroke-width="2"/>
<polyline points="2220,1100 2500,1100 2500,1061 2810,1061" stroke="#111111" stroke-width="4" stroke-linecap="round" stroke-linejoin="round" fill="none"/>
<polyline points="2220,1370 2460,1370 2460,1436 2810,1436" stroke="#111111" stroke-width="4" stroke-linecap="round" stroke-linejoin="round" fill="none"/>
<rect x="80" y="2325" width="3250" height="190" fill="#ffffff" stroke="#111111" stroke-width="3"/>
<text x="110" y="2365" fill="#111111" font-family="Arial, Helvetica, sans-serif" font-size="26" font-weight="700" text-anchor="start" dominant-baseline="auto">Bench notes / stop conditions</text>
<text x="110" y="2405" fill="#111111" font-family="Arial, Helvetica, sans-serif" font-size="22" font-weight="400" text-anchor="start" dominant-baseline="auto">• +12V_PROTECTED and +5V_LOGIC must be open/megaohms before power.  • ESP32 is USB-powered only; never backfeed VIN from 12V supply.</text>
<text x="110" y="2440" fill="#111111" font-family="Arial, Helvetica, sans-serif" font-size="22" font-weight="400" text-anchor="start" dominant-baseline="auto">• Full LED current stays off solderless breadboard. Breadboard may carry logic/data/common-reference ground only, unless tiny current-limited LED load.</text>
<text x="110" y="2475" fill="#9b1c1c" font-family="Arial, Helvetica, sans-serif" font-size="22" font-weight="400" text-anchor="start" dominant-baseline="auto">• D1 1N5822 drawing is for the current-limited prototype path; final multi-amp protection needs a properly rated reverse-protection block.</text>
<text x="3310" y="2560" fill="#555555" font-family="Arial, Helvetica, sans-serif" font-size="18" font-weight="400" text-anchor="end" dominant-baseline="auto">projects/lisbon-av-install • esp32-led-controller-v6-electrical-schematic</text>
</svg>