<svg xmlns="http://www.w3.org/2000/svg" xmlns:xlink="http://www.w3.org/1999/xlink" xml:lang="en" height="645.0400000000001pt" width="847.664pt" viewBox="-299.26000000000005 -405.00000000000006 847.664 645.0400000000001"><polygon points="191.70000000000002,-304.2 204.29999999999998,-295.2 191.70000000000002,-286.2 " style="stroke:black;fill:none;stroke-width:1.4;stroke-dasharray:-;stroke-linecap:round;stroke-linejoin:round;" /><polygon points="288.0,-166.49999999999997 279.0,-153.89999999999998 270.0,-166.49999999999997 " style="stroke:black;fill:none;stroke-width:1.4;stroke-dasharray:-;stroke-linecap:round;stroke-linejoin:round;" /><polygon points="178.20000000000002,161.10000000000002 169.20000000000002,173.70000000000005 160.20000000000002,161.10000000000002 " style="stroke:black;fill:none;stroke-width:1.4;stroke-dasharray:-;stroke-linecap:round;stroke-linejoin:round;" /><path d="M 3.6,-277.2 L 52.2,-277.2 L 52.2,-313.2 L 3.6,-313.2 L 3.6,-277.2" style="stroke:black;fill:none;stroke-width:1.4;stroke-dasharray:-;stroke-linecap:round;stroke-linejoin:round;" /><path d="M 52.2,-295.2 L 70.2,-295.2" style="stroke:black;fill:none;stroke-width:1.4;stroke-dasharray:-;stroke-linecap:round;stroke-linejoin:round;" /><path d="M 52.2,-316.8 L 70.2,-316.8" style="stroke:black;fill:none;stroke-width:1.4;stroke-dasharray:-;stroke-linecap:round;stroke-linejoin:round;" /><path d="M 70.2,-295.2 L 80.10000000000001,-295.2 L 90.0,-295.2" style="stroke:black;fill:none;stroke-width:1.4;stroke-dasharray:-;stroke-linecap:round;stroke-linejoin:round;" /><path d="M 90.0,-295.2 L 108.0,-295.2 L 108.0,-304.2 L 144.0,-304.2 L 144.0,-286.2 L 108.0,-286.2 L 108.0,-295.2 M 144.0,-295.2 L 162.0,-295.2" style="stroke:black;fill:none;stroke-width:1.4;stroke-dasharray:-;stroke-linecap:round;stroke-linejoin:round;" /><path d="M 108.0,-295.2 L 144.0,-295.2" style="stroke:black;fill:none;stroke-width:1.4;stroke-dasharray:-;stroke-linecap:round;stroke-linejoin:round;" /><path d="M 162.0,-295.2 L 191.70000000000002,-295.2 M 204.29999999999998,-304.2 L 204.29999999999998,-286.2 M 204.29999999999998,-295.2 L 234.0,-295.2" style="stroke:black;fill:none;stroke-width:1.4;stroke-dasharray:-;stroke-linecap:round;stroke-linejoin:round;" /><path d="M 70.2,-316.8 L 122.4,-316.8 L 174.6,-316.8" style="stroke:black;fill:none;stroke-width:1.4;stroke-dasharray:-;stroke-linecap:round;stroke-linejoin:round;" /><path d="M 234.0,-295.2 L 234.0,-271.79999999999995 L 234.0,-248.39999999999998" style="stroke:black;fill:none;stroke-width:1.4;stroke-dasharray:-;stroke-linecap:round;stroke-linejoin:round;" /><path d="M 234.0,-248.39999999999998 L 234.0,-215.64 M 243.0,-215.64 L 225.0,-215.64 M 243.0,-209.16 L 225.0,-209.16 M 234.0,-209.16 L 234.0,-176.39999999999998" style="stroke:black;fill:none;stroke-width:1.4;stroke-dasharray:-;stroke-linecap:round;stroke-linejoin:round;" /><path d="M 234.0,-176.39999999999998 L 234.0,-171.89999999999998 L 234.0,-167.39999999999998" style="stroke:black;fill:none;stroke-width:1.4;stroke-dasharray:-;stroke-linecap:round;stroke-linejoin:round;" /><path d="M 234.0,-167.39999999999998 L 234.0,-152.99999999999997 L 225.0,-152.99999999999997 L 243.0,-152.99999999999997 M 227.70000000000002,-148.67999999999995 L 240.29999999999998,-148.67999999999995 M 232.20000000000002,-144.35999999999999 L 235.79999999999998,-144.35999999999999" style="stroke:black;fill:none;stroke-width:1.4;stroke-dasharray:-;stroke-linecap:round;stroke-linejoin:round;" /><path d="M 279.0,-295.2 L 279.0,-281.7 L 279.0,-268.2" style="stroke:black;fill:none;stroke-width:1.4;stroke-dasharray:-;stroke-linecap:round;stroke-linejoin:round;" /><path d="M 279.0,-268.2 L 279.0,-250.2 L 288.0,-247.2 L 270.0,-241.2 L 288.0,-235.19999999999996 L 270.0,-229.2 L 288.0,-223.2 L 270.0,-217.2 L 279.0,-214.2 L 279.0,-196.2" style="stroke:black;fill:none;stroke-width:1.4;stroke-dasharray:-;stroke-linecap:round;stroke-linejoin:round;" /><path d="M 279.0,-196.2 L 279.0,-166.49999999999997 M 288.0,-153.89999999999998 L 270.0,-153.89999999999998 M 279.0,-153.89999999999998 L 279.0,-124.19999999999997" style="stroke:black;fill:none;stroke-width:1.4;stroke-dasharray:-;stroke-linecap:round;stroke-linejoin:round;" /><path d="M 292.5,-157.49999999999997 L 301.99864937670384,-152.07220035616916" style="stroke:black;fill:none;stroke-width:1.4;stroke-dasharray:-;stroke-linecap:round;stroke-linejoin:round;" /><path d="M 306.51351371575106 -149.49227787671364 L 300.56976923423616 -149.57166010685074 L 303.42752951917157 -154.57274060548764 Z" style="stroke:black;fill:black;stroke-linecap:butt;stroke-linejoin:miter;" /><path d="M 292.5,-165.6 L 301.99864937670384,-160.17220035616918" style="stroke:black;fill:none;stroke-width:1.4;stroke-dasharray:-;stroke-linecap:round;stroke-linejoin:round;" /><path d="M 306.51351371575106 -157.59227787671364 L 300.5697692342362 -157.67166010685074 L 303.4275295191716 -162.67274060548763 Z" style="stroke:black;fill:black;stroke-linecap:butt;stroke-linejoin:miter;" /><path d="M 279.0,-124.19999999999997 L 279.0,-119.69999999999997 L 279.0,-115.19999999999997" style="stroke:black;fill:none;stroke-width:1.4;stroke-dasharray:-;stroke-linecap:round;stroke-linejoin:round;" /><path d="M 279.0,-115.19999999999997 L 279.0,-100.79999999999998 L 270.0,-100.79999999999998 L 288.0,-100.79999999999998 M 272.7,-96.47999999999998 L 285.3,-96.47999999999998 M 277.2,-92.15999999999997 L 280.8,-92.15999999999997" style="stroke:black;fill:none;stroke-width:1.4;stroke-dasharray:-;stroke-linecap:round;stroke-linejoin:round;" /><path d="M 5.3999999999999995,-48.6 L 5.399999999999983,41.4 L 163.79999999999998,41.40000000000003 L 163.8,-48.59999999999997 L 5.3999999999999995,-48.6" style="stroke:black;fill:none;stroke-width:1.4;stroke-dasharray:-;stroke-linecap:round;stroke-linejoin:round;" /><path d="M 23.399999999999984,41.4 L 23.39999999999998,59.4" style="stroke:black;fill:none;stroke-width:1.4;stroke-dasharray:-;stroke-linecap:round;stroke-linejoin:round;" /><path d="M 53.999999999999986,41.40000000000001 L 53.999999999999986,59.40000000000001" style="stroke:black;fill:none;stroke-width:1.4;stroke-dasharray:-;stroke-linecap:round;stroke-linejoin:round;" /><path d="M 84.6,41.40000000000001 L 84.6,59.40000000000001" style="stroke:black;fill:none;stroke-width:1.4;stroke-dasharray:-;stroke-linecap:round;stroke-linejoin:round;" /><path d="M 115.19999999999999,41.40000000000001 L 115.19999999999999,59.40000000000001" style="stroke:black;fill:none;stroke-width:1.4;stroke-dasharray:-;stroke-linecap:round;stroke-linejoin:round;" /><path d="M 145.79999999999998,41.40000000000003 L 145.79999999999998,59.40000000000003" style="stroke:black;fill:none;stroke-width:1.4;stroke-dasharray:-;stroke-linecap:round;stroke-linejoin:round;" /><path d="M 23.39999999999998,59.4 L 23.39999999999998,54.9 L 23.39999999999998,50.4" style="stroke:blue;fill:none;stroke-width:1.4;stroke-dasharray:-;stroke-linecap:round;stroke-linejoin:round;" /><path d="M 23.39999999999998,50.4 L 23.39999999999998,35.99999999999999" style="stroke:blue;fill:none;stroke-width:1.4;stroke-dasharray:-;stroke-linecap:round;stroke-linejoin:round;" /><path d="M 23.39999999999998,35.99999999999999 L 16.64999999999998,35.99999999999999" style="stroke:blue;fill:none;stroke-width:1.4;stroke-dasharray:-;stroke-linecap:round;stroke-linejoin:round;" /><path d="M 23.39999999999998,35.99999999999999 L 30.14999999999998,35.99999999999999" style="stroke:blue;fill:none;stroke-width:1.4;stroke-dasharray:-;stroke-linecap:round;stroke-linejoin:round;" /><path d="M 53.999999999999986,59.40000000000001 L 53.999999999999986,63.90000000000001 L 53.999999999999986,68.4" style="stroke:black;fill:none;stroke-width:1.4;stroke-dasharray:-;stroke-linecap:round;stroke-linejoin:round;" /><path d="M 53.999999999999986,68.4 L 53.999999999999986,82.80000000000001 L 44.999999999999986,82.80000000000001 L 62.999999999999986,82.80000000000001 M 47.69999999999998,87.12000000000002 L 60.29999999999998,87.12000000000002 M 52.19999999999998,91.44000000000001 L 55.79999999999998,91.44000000000001" style="stroke:black;fill:none;stroke-width:1.4;stroke-dasharray:-;stroke-linecap:round;stroke-linejoin:round;" /><path d="M 230.4,-75.60000000000001 L 230.39999999999998,50.4 L 460.8,50.40000000000005 L 460.8,-75.59999999999995 L 230.4,-75.60000000000001" style="stroke:black;fill:none;stroke-width:1.4;stroke-dasharray:-;stroke-linecap:round;stroke-linejoin:round;" /><path d="M 248.4,-75.60000000000001 L 248.4,-93.60000000000001" style="stroke:black;fill:none;stroke-width:1.4;stroke-dasharray:-;stroke-linecap:round;stroke-linejoin:round;" /><path d="M 280.8,-75.6 L 280.8,-93.6" style="stroke:black;fill:none;stroke-width:1.4;stroke-dasharray:-;stroke-linecap:round;stroke-linejoin:round;" /><path d="M 313.2,-75.6 L 313.2,-93.6" style="stroke:black;fill:none;stroke-width:1.4;stroke-dasharray:-;stroke-linecap:round;stroke-linejoin:round;" /><path d="M 345.6,-75.6 L 345.6,-93.6" style="stroke:black;fill:none;stroke-width:1.4;stroke-dasharray:-;stroke-linecap:round;stroke-linejoin:round;" /><path d="M 378.0,-75.59999999999997 L 378.0,-93.59999999999997" style="stroke:black;fill:none;stroke-width:1.4;stroke-dasharray:-;stroke-linecap:round;stroke-linejoin:round;" /><path d="M 410.40000000000003,-75.59999999999997 L 410.40000000000003,-93.59999999999997" style="stroke:black;fill:none;stroke-width:1.4;stroke-dasharray:-;stroke-linecap:round;stroke-linejoin:round;" /><path d="M 442.8,-75.59999999999997 L 442.8,-93.59999999999995" style="stroke:black;fill:none;stroke-width:1.4;stroke-dasharray:-;stroke-linecap:round;stroke-linejoin:round;" /><path d="M 248.39999999999998,50.4 L 248.39999999999998,68.39999999999999" style="stroke:black;fill:none;stroke-width:1.4;stroke-dasharray:-;stroke-linecap:round;stroke-linejoin:round;" /><path d="M 280.8,50.40000000000001 L 280.8,68.39999999999999" style="stroke:black;fill:none;stroke-width:1.4;stroke-dasharray:-;stroke-linecap:round;stroke-linejoin:round;" /><path d="M 313.2,50.40000000000001 L 313.2,68.39999999999999" style="stroke:black;fill:none;stroke-width:1.4;stroke-dasharray:-;stroke-linecap:round;stroke-linejoin:round;" /><path d="M 345.59999999999997,50.40000000000001 L 345.59999999999997,68.40000000000003" style="stroke:black;fill:none;stroke-width:1.4;stroke-dasharray:-;stroke-linecap:round;stroke-linejoin:round;" /><path d="M 378.0,50.40000000000003 L 378.0,68.40000000000003" style="stroke:black;fill:none;stroke-width:1.4;stroke-dasharray:-;stroke-linecap:round;stroke-linejoin:round;" /><path d="M 410.4,50.40000000000003 L 410.4,68.40000000000003" style="stroke:black;fill:none;stroke-width:1.4;stroke-dasharray:-;stroke-linecap:round;stroke-linejoin:round;" /><path d="M 442.8,50.40000000000003 L 442.8,68.40000000000003" style="stroke:black;fill:none;stroke-width:1.4;stroke-dasharray:-;stroke-linecap:round;stroke-linejoin:round;" /><path d="M 248.4,-93.60000000000001 L 240.3,-93.60000000000001 L 232.20000000000002,-93.60000000000001" style="stroke:black;fill:none;stroke-width:1.4;stroke-dasharray:-;stroke-linecap:round;stroke-linejoin:round;" /><path d="M 232.20000000000002,-93.60000000000001 L 232.20000000000002,-89.10000000000001 L 232.20000000000002,-84.60000000000001" style="stroke:black;fill:none;stroke-width:1.4;stroke-dasharray:-;stroke-linecap:round;stroke-linejoin:round;" /><path d="M 232.20000000000002,-84.60000000000001 L 232.20000000000002,-70.2 L 223.20000000000002,-70.2 L 241.20000000000002,-70.2 M 225.9,-65.88 L 238.5,-65.88 M 230.4,-61.56 L 234.0,-61.56" style="stroke:black;fill:none;stroke-width:1.4;stroke-dasharray:-;stroke-linecap:round;stroke-linejoin:round;" /><path d="M 345.6,-93.6 L 337.50000000000006,-93.6 L 329.4000000000001,-93.6" style="stroke:black;fill:none;stroke-width:1.4;stroke-dasharray:-;stroke-linecap:round;stroke-linejoin:round;" /><path d="M 329.4000000000001,-93.6 L 329.4000000000001,-89.1 L 329.4000000000001,-84.6" style="stroke:black;fill:none;stroke-width:1.4;stroke-dasharray:-;stroke-linecap:round;stroke-linejoin:round;" /><path d="M 329.4000000000001,-84.6 L 329.4000000000001,-70.19999999999999 L 320.4000000000001,-70.19999999999999 L 338.4000000000001,-70.19999999999999 M 323.1,-65.87999999999998 L 335.7000000000001,-65.87999999999998 M 327.6,-61.55999999999998 L 331.2000000000001,-61.55999999999998" style="stroke:black;fill:none;stroke-width:1.4;stroke-dasharray:-;stroke-linecap:round;stroke-linejoin:round;" /><path d="M 442.8,-93.59999999999995 L 434.70000000000005,-93.59999999999995 L 426.6,-93.59999999999995" style="stroke:black;fill:none;stroke-width:1.4;stroke-dasharray:-;stroke-linecap:round;stroke-linejoin:round;" /><path d="M 426.6,-93.59999999999995 L 426.6,-89.09999999999995 L 426.6,-84.59999999999995" style="stroke:black;fill:none;stroke-width:1.4;stroke-dasharray:-;stroke-linecap:round;stroke-linejoin:round;" /><path d="M 426.6,-84.59999999999995 L 426.6,-70.19999999999996 L 417.6,-70.19999999999996 L 435.6,-70.19999999999996 M 420.3,-65.87999999999995 L 432.9000000000001,-65.87999999999995 M 424.8,-61.55999999999995 L 428.4000000000001,-61.55999999999995" style="stroke:black;fill:none;stroke-width:1.4;stroke-dasharray:-;stroke-linecap:round;stroke-linejoin:round;" /><path d="M 248.39999999999998,68.39999999999999 L 248.39999999999998,63.9 L 248.39999999999998,59.4" style="stroke:blue;fill:none;stroke-width:1.4;stroke-dasharray:-;stroke-linecap:round;stroke-linejoin:round;" /><path d="M 248.39999999999998,59.4 L 248.39999999999998,45.0" style="stroke:blue;fill:none;stroke-width:1.4;stroke-dasharray:-;stroke-linecap:round;stroke-linejoin:round;" /><path d="M 248.39999999999998,45.0 L 241.64999999999998,45.0" style="stroke:blue;fill:none;stroke-width:1.4;stroke-dasharray:-;stroke-linecap:round;stroke-linejoin:round;" /><path d="M 248.39999999999998,45.0 L 255.14999999999998,45.0" style="stroke:blue;fill:none;stroke-width:1.4;stroke-dasharray:-;stroke-linecap:round;stroke-linejoin:round;" /><path d="M 280.8,68.39999999999999 L 280.8,63.9 L 280.8,59.4" style="stroke:blue;fill:none;stroke-width:1.4;stroke-dasharray:-;stroke-linecap:round;stroke-linejoin:round;" /><path d="M 280.8,59.4 L 280.8,45.0" style="stroke:blue;fill:none;stroke-width:1.4;stroke-dasharray:-;stroke-linecap:round;stroke-linejoin:round;" /><path d="M 280.8,45.0 L 274.05,45.0" style="stroke:blue;fill:none;stroke-width:1.4;stroke-dasharray:-;stroke-linecap:round;stroke-linejoin:round;" /><path d="M 280.8,45.0 L 287.55,45.0" style="stroke:blue;fill:none;stroke-width:1.4;stroke-dasharray:-;stroke-linecap:round;stroke-linejoin:round;" /><path d="M 378.0,68.40000000000003 L 378.0,63.90000000000003 L 378.0,59.40000000000003" style="stroke:blue;fill:none;stroke-width:1.4;stroke-dasharray:-;stroke-linecap:round;stroke-linejoin:round;" /><path d="M 378.0,59.40000000000003 L 378.0,45.00000000000003" style="stroke:blue;fill:none;stroke-width:1.4;stroke-dasharray:-;stroke-linecap:round;stroke-linejoin:round;" /><path d="M 378.0,45.00000000000003 L 371.25,45.00000000000003" style="stroke:blue;fill:none;stroke-width:1.4;stroke-dasharray:-;stroke-linecap:round;stroke-linejoin:round;" /><path d="M 378.0,45.00000000000003 L 384.75,45.00000000000003" style="stroke:blue;fill:none;stroke-width:1.4;stroke-dasharray:-;stroke-linecap:round;stroke-linejoin:round;" /><path d="M 313.2,68.39999999999999 L 319.5,68.39999999999999 L 325.79999999999995,68.39999999999999" style="stroke:black;fill:none;stroke-width:1.4;stroke-dasharray:-;stroke-linecap:round;stroke-linejoin:round;" /><path d="M 325.79999999999995,68.39999999999999 L 325.79999999999995,72.89999999999999 L 325.79999999999995,77.39999999999999" style="stroke:black;fill:none;stroke-width:1.4;stroke-dasharray:-;stroke-linecap:round;stroke-linejoin:round;" /><path d="M 325.79999999999995,77.39999999999999 L 325.79999999999995,91.8 L 316.79999999999995,91.8 L 334.79999999999995,91.8 M 319.49999999999994,96.12 L 332.09999999999997,96.12 M 323.99999999999994,100.44 L 327.59999999999997,100.44" style="stroke:black;fill:none;stroke-width:1.4;stroke-dasharray:-;stroke-linecap:round;stroke-linejoin:round;" /><path d="M 410.4,68.40000000000003 L 416.7,68.40000000000003 L 422.99999999999994,68.40000000000003" style="stroke:black;fill:none;stroke-width:1.4;stroke-dasharray:-;stroke-linecap:round;stroke-linejoin:round;" /><path d="M 422.99999999999994,68.40000000000003 L 422.99999999999994,72.90000000000003 L 422.99999999999994,77.40000000000003" style="stroke:black;fill:none;stroke-width:1.4;stroke-dasharray:-;stroke-linecap:round;stroke-linejoin:round;" /><path d="M 422.99999999999994,77.40000000000003 L 422.99999999999994,91.80000000000003 L 413.99999999999994,91.80000000000003 L 431.99999999999994,91.80000000000003 M 416.69999999999993,96.12000000000003 L 429.29999999999995,96.12000000000003 M 421.19999999999993,100.44000000000003 L 424.79999999999995,100.44000000000003" style="stroke:black;fill:none;stroke-width:1.4;stroke-dasharray:-;stroke-linecap:round;stroke-linejoin:round;" /><path d="M 345.59999999999997,68.40000000000003 L 351.9,68.40000000000003 L 358.2,68.40000000000003" style="stroke:black;fill:none;stroke-width:1.4;stroke-dasharray:-;stroke-linecap:round;stroke-linejoin:round;" /><path d="M 355.32,71.28000000000003 L 358.2,68.40000000000003 L 361.08,65.52000000000002" style="stroke:black;fill:none;stroke-width:1.4;stroke-dasharray:-;stroke-linecap:round;stroke-linejoin:round;" /><path d="M 355.32,65.52000000000002 L 358.2,68.40000000000003 L 361.08,71.28000000000003" style="stroke:black;fill:none;stroke-width:1.4;stroke-dasharray:-;stroke-linecap:round;stroke-linejoin:round;" /><path d="M 442.8,68.40000000000003 L 449.1,68.40000000000003 L 455.40000000000003,68.40000000000003" style="stroke:black;fill:none;stroke-width:1.4;stroke-dasharray:-;stroke-linecap:round;stroke-linejoin:round;" /><path d="M 452.52,71.28000000000003 L 455.40000000000003,68.40000000000003 L 458.28000000000003,65.52000000000002" style="stroke:black;fill:none;stroke-width:1.4;stroke-dasharray:-;stroke-linecap:round;stroke-linejoin:round;" /><path d="M 452.52,65.52000000000002 L 455.40000000000003,68.40000000000003 L 458.28000000000003,71.28000000000003" style="stroke:black;fill:none;stroke-width:1.4;stroke-dasharray:-;stroke-linecap:round;stroke-linejoin:round;" /><path d="M 84.6,59.40000000000001 L 182.70000000000002,59.40000000000001 L 280.8,59.40000000000001" style="stroke:black;fill:none;stroke-width:1.4;stroke-dasharray:-;stroke-linecap:round;stroke-linejoin:round;" /><path d="M 115.19999999999999,59.40000000000001 L 246.6,59.40000000000001 L 378.0,59.40000000000001" style="stroke:black;fill:none;stroke-width:1.4;stroke-dasharray:-;stroke-linecap:round;stroke-linejoin:round;" /><path d="M 313.2,-93.6 L 304.2,-93.6 L 295.2,-93.6" style="stroke:black;fill:none;stroke-width:1.4;stroke-dasharray:-;stroke-linecap:round;stroke-linejoin:round;" /><path d="M 295.2,-93.6 L 277.2,-93.6 L 274.2,-84.6 L 268.2,-102.6 L 262.2,-84.6 L 256.2,-102.6 L 250.2,-84.6 L 244.2,-102.6 L 241.2,-93.6 L 223.2,-93.60000000000001" style="stroke:black;fill:none;stroke-width:1.4;stroke-dasharray:-;stroke-linecap:round;stroke-linejoin:round;" /><path d="M 410.40000000000003,-93.59999999999997 L 401.40000000000003,-93.59999999999997 L 392.40000000000003,-93.59999999999997" style="stroke:black;fill:none;stroke-width:1.4;stroke-dasharray:-;stroke-linecap:round;stroke-linejoin:round;" /><path d="M 392.40000000000003,-93.59999999999997 L 374.40000000000003,-93.59999999999997 L 371.4,-84.59999999999997 L 365.40000000000003,-102.59999999999997 L 359.40000000000003,-84.59999999999997 L 353.4,-102.59999999999997 L 347.40000000000003,-84.59999999999997 L 341.40000000000003,-102.59999999999997 L 338.40000000000003,-93.59999999999997 L 320.40000000000003,-93.6" style="stroke:black;fill:none;stroke-width:1.4;stroke-dasharray:-;stroke-linecap:round;stroke-linejoin:round;" /><path d="M 403.2,-187.20000000000002 L 414.0,-187.20000000000002 L 424.79999999999995,-187.20000000000002" style="stroke:black;fill:none;stroke-width:1.4;stroke-dasharray:-;stroke-linecap:round;stroke-linejoin:round;" /><path d="M 403.2,-187.20000000000002 L 403.2,-191.70000000000002 L 403.2,-196.20000000000002" style="stroke:blue;fill:none;stroke-width:1.4;stroke-dasharray:-;stroke-linecap:round;stroke-linejoin:round;" /><path d="M 403.2,-196.20000000000002 L 403.2,-210.60000000000002" style="stroke:blue;fill:none;stroke-width:1.4;stroke-dasharray:-;stroke-linecap:round;stroke-linejoin:round;" /><path d="M 403.2,-210.60000000000002 L 396.45,-210.60000000000002" style="stroke:blue;fill:none;stroke-width:1.4;stroke-dasharray:-;stroke-linecap:round;stroke-linejoin:round;" /><path d="M 403.2,-210.60000000000002 L 409.95,-210.60000000000002" style="stroke:blue;fill:none;stroke-width:1.4;stroke-dasharray:-;stroke-linecap:round;stroke-linejoin:round;" /><path d="M 432.0,-187.20000000000002 L 432.0,-154.44 M 441.0,-154.44 L 423.0,-154.44 M 441.0,-147.96 L 423.0,-147.96 M 432.0,-147.96 L 432.0,-115.2" style="stroke:black;fill:none;stroke-width:1.4;stroke-dasharray:-;stroke-linecap:round;stroke-linejoin:round;" /><path d="M 432.0,-115.2 L 432.0,-110.7 L 432.0,-106.2" style="stroke:black;fill:none;stroke-width:1.4;stroke-dasharray:-;stroke-linecap:round;stroke-linejoin:round;" /><path d="M 432.0,-106.2 L 432.0,-91.80000000000001 L 423.0,-91.80000000000001 L 441.0,-91.80000000000001 M 425.7,-87.48 L 438.3,-87.48 M 430.2,-83.16 L 433.8,-83.16" style="stroke:black;fill:none;stroke-width:1.4;stroke-dasharray:-;stroke-linecap:round;stroke-linejoin:round;" /><path d="M 468.0,-187.20000000000002 L 468.0,-154.44 M 477.0,-154.44 L 459.0,-154.44 M 477.0,-147.96 L 459.0,-147.96 M 468.0,-147.96 L 468.0,-115.2" style="stroke:black;fill:none;stroke-width:1.4;stroke-dasharray:-;stroke-linecap:round;stroke-linejoin:round;" /><path d="M 468.0,-115.2 L 468.0,-110.7 L 468.0,-106.2" style="stroke:black;fill:none;stroke-width:1.4;stroke-dasharray:-;stroke-linecap:round;stroke-linejoin:round;" /><path d="M 468.0,-106.2 L 468.0,-91.80000000000001 L 459.0,-91.80000000000001 L 477.0,-91.80000000000001 M 461.7,-87.48 L 474.3,-87.48 M 466.2,-83.16 L 469.8,-83.16" style="stroke:black;fill:none;stroke-width:1.4;stroke-dasharray:-;stroke-linecap:round;stroke-linejoin:round;" /><path d="M 145.79999999999998,59.40000000000003 L 157.5,59.40000000000003 L 169.20000000000002,59.40000000000003" style="stroke:black;fill:none;stroke-width:1.4;stroke-dasharray:-;stroke-linecap:round;stroke-linejoin:round;" /><path d="M 169.20000000000002,59.40000000000003 L 169.20000000000002,77.40000000000003 L 178.20000000000002,80.40000000000003 L 160.20000000000002,86.40000000000003 L 178.20000000000002,92.40000000000002 L 160.20000000000002,98.40000000000003 L 178.20000000000002,104.40000000000003 L 160.20000000000002,110.40000000000002 L 169.20000000000002,113.40000000000003 L 169.20000000000002,131.40000000000003" style="stroke:black;fill:none;stroke-width:1.4;stroke-dasharray:-;stroke-linecap:round;stroke-linejoin:round;" /><path d="M 169.20000000000002,131.40000000000003 L 169.20000000000002,161.10000000000002 M 178.20000000000002,173.70000000000005 L 160.20000000000002,173.70000000000005 M 169.20000000000002,173.70000000000005 L 169.20000000000002,203.4" style="stroke:black;fill:none;stroke-width:1.4;stroke-dasharray:-;stroke-linecap:round;stroke-linejoin:round;" /><path d="M 182.70000000000002,170.10000000000002 L 192.1986493767039,175.52779964383083" style="stroke:black;fill:none;stroke-width:1.4;stroke-dasharray:-;stroke-linecap:round;stroke-linejoin:round;" /><path d="M 196.7135137157511 178.10772212328638 L 190.76976923423624 178.02833989314928 L 193.6275295191716 173.02725939451238 Z" style="stroke:black;fill:black;stroke-linecap:butt;stroke-linejoin:miter;" /><path d="M 182.70000000000002,162.00000000000003 L 192.1986493767039,167.42779964383084" style="stroke:black;fill:none;stroke-width:1.4;stroke-dasharray:-;stroke-linecap:round;stroke-linejoin:round;" /><path d="M 196.7135137157511 170.00772212328636 L 190.76976923423624 169.92833989314926 L 193.6275295191716 164.92725939451236 Z" style="stroke:black;fill:black;stroke-linecap:butt;stroke-linejoin:miter;" /><path d="M 169.20000000000002,203.4 L 169.20000000000002,207.9 L 169.20000000000002,212.4" style="stroke:black;fill:none;stroke-width:1.4;stroke-dasharray:-;stroke-linecap:round;stroke-linejoin:round;" /><path d="M 169.20000000000002,212.4 L 169.20000000000002,226.8 L 160.20000000000002,226.8 L 178.20000000000002,226.8 M 162.9,231.12 L 175.5,231.12 M 167.4,235.44 L 171.0,235.44" style="stroke:black;fill:none;stroke-width:1.4;stroke-dasharray:-;stroke-linecap:round;stroke-linejoin:round;" /><path d="M 468.0,-50.4 L 468.0,7.200000000000006 L 525.6,7.200000000000014 L 525.6,-50.39999999999999 L 468.0,-50.4" style="stroke:black;fill:none;stroke-width:1.4;stroke-dasharray:-;stroke-linecap:round;stroke-linejoin:round;" /><path d="M 486.0,-50.4 L 486.0,-68.39999999999999" style="stroke:black;fill:none;stroke-width:1.4;stroke-dasharray:-;stroke-linecap:round;stroke-linejoin:round;" /><path d="M 496.8,-50.39999999999999 L 496.8,-68.39999999999999" style="stroke:black;fill:none;stroke-width:1.4;stroke-dasharray:-;stroke-linecap:round;stroke-linejoin:round;" /><path d="M 507.59999999999997,-50.39999999999999 L 507.59999999999997,-68.39999999999999" style="stroke:black;fill:none;stroke-width:1.4;stroke-dasharray:-;stroke-linecap:round;stroke-linejoin:round;" /><path d="M 468.0,36.0 L 468.0,93.60000000000001 L 525.6,93.60000000000002 L 525.6,36.00000000000001 L 468.0,36.0" style="stroke:black;fill:none;stroke-width:1.4;stroke-dasharray:-;stroke-linecap:round;stroke-linejoin:round;" /><path d="M 486.0,36.0 L 486.0,18.000000000000004" style="stroke:black;fill:none;stroke-width:1.4;stroke-dasharray:-;stroke-linecap:round;stroke-linejoin:round;" /><path d="M 496.8,36.00000000000001 L 496.8,18.000000000000007" style="stroke:black;fill:none;stroke-width:1.4;stroke-dasharray:-;stroke-linecap:round;stroke-linejoin:round;" /><path d="M 507.59999999999997,36.00000000000001 L 507.59999999999997,18.000000000000007" style="stroke:black;fill:none;stroke-width:1.4;stroke-dasharray:-;stroke-linecap:round;stroke-linejoin:round;" /><path d="M 496.8,-68.39999999999999 L 488.70000000000005,-68.39999999999999 L 480.6,-68.39999999999999" style="stroke:black;fill:none;stroke-width:1.4;stroke-dasharray:-;stroke-linecap:round;stroke-linejoin:round;" /><path d="M 480.6,-68.39999999999999 L 480.6,-63.89999999999999 L 480.6,-59.39999999999999" style="stroke:black;fill:none;stroke-width:1.4;stroke-dasharray:-;stroke-linecap:round;stroke-linejoin:round;" /><path d="M 480.6,-59.39999999999999 L 480.6,-44.999999999999986 L 471.6,-44.999999999999986 L 489.6,-44.999999999999986 M 474.3,-40.679999999999986 L 486.9000000000001,-40.679999999999986 M 478.8,-36.35999999999999 L 482.4000000000001,-36.35999999999999" style="stroke:black;fill:none;stroke-width:1.4;stroke-dasharray:-;stroke-linecap:round;stroke-linejoin:round;" /><path d="M 496.8,18.000000000000007 L 488.70000000000005,18.000000000000007 L 480.6,18.000000000000007" style="stroke:black;fill:none;stroke-width:1.4;stroke-dasharray:-;stroke-linecap:round;stroke-linejoin:round;" /><path d="M 480.6,18.000000000000007 L 480.6,22.500000000000007 L 480.6,27.000000000000007" style="stroke:black;fill:none;stroke-width:1.4;stroke-dasharray:-;stroke-linecap:round;stroke-linejoin:round;" /><path d="M 480.6,27.000000000000007 L 480.6,41.40000000000001 L 471.6,41.40000000000001 L 489.6,41.40000000000001 M 474.3,45.720000000000006 L 486.9000000000001,45.720000000000006 M 478.8,50.040000000000006 L 482.4000000000001,50.040000000000006" style="stroke:black;fill:none;stroke-width:1.4;stroke-dasharray:-;stroke-linecap:round;stroke-linejoin:round;" /><text x="3.6" y="-408.40000000000003" dominant-baseline="central" fill="black" font-size="16" font-family="sans" text-anchor="start"><tspan x="3.6" dy="16">ESP32 LED Controller v6 — standard schemdraw schematic</tspan></text><text x="3.6" y="-383.59999999999997" dominant-baseline="central" fill="black" font-size="11" font-family="sans" text-anchor="start"><tspan x="3.6" dy="11">U1 is shown as physical DIP-14 top view: notch up, pin 1 upper-left, pin 14 upper-right</tspan></text><text x="3.6" y="-367.12" dominant-baseline="central" fill="red" font-size="10" font-family="sans" text-anchor="start"><tspan x="3.6" dy="10">/OE pins are active-low: pins 1/4 to GND enable used channels; pins 10/13 to +5V_LOGIC disable unused channels</tspan></text><text x="3.6" y="-339.59999999999997" dominant-baseline="central" fill="black" font-size="12" font-family="sans" text-anchor="start"><tspan x="3.6" dy="12">12 V LED POWER</tspan></text><text x="54.900000000000006" y="-308.90000000000003" dominant-baseline="ideographic" fill="black" font-size="11" font-family="sans" text-anchor="start"><tspan x="54.900000000000006" dy="11">1</tspan></text><text x="46.80000000000001" y="-309.2" dominant-baseline="central" fill="black" font-size="14" font-family="sans" text-anchor="end"><tspan x="46.80000000000001" dy="14">+12V</tspan></text><text x="54.900000000000006" y="-330.5" dominant-baseline="ideographic" fill="black" font-size="11" font-family="sans" text-anchor="start"><tspan x="54.900000000000006" dy="11">2</tspan></text><text x="46.80000000000001" y="-330.8" dominant-baseline="central" fill="black" font-size="14" font-family="sans" text-anchor="end"><tspan x="46.80000000000001" dy="14">GND</tspan></text><text x="31.5" y="-312.3" dominant-baseline="central" fill="black" font-size="9" font-family="sans" text-anchor="middle"><tspan x="31.5" dy="9">J3</tspan><tspan x="31.5" dy="9">12V IN</tspan></text><text x="126.0" y="-323.79999999999995" dominant-baseline="ideographic" fill="black" font-size="8" font-family="sans" text-anchor="middle"><tspan x="126.0" dy="8">F1</tspan><tspan x="126.0" dy="8">7.5A</tspan></text><text x="198.0" y="-323.79999999999995" dominant-baseline="ideographic" fill="black" font-size="8" font-family="sans" text-anchor="middle"><tspan x="198.0" dy="8">D1/RP1</tspan><tspan x="198.0" dy="8">1N5822 proto only</tspan></text><text x="244.07999999999998" y="-311.67999999999995" dominant-baseline="central" fill="red" font-size="10" font-family="sans" text-anchor="start"><tspan x="244.07999999999998" dy="10">+12V_PROTECTED</tspan></text><text x="184.67999999999995" y="-333.28000000000003" dominant-baseline="central" fill="black" font-size="10" font-family="sans" text-anchor="start"><tspan x="184.67999999999995" dy="10">GND_COMMON</tspan></text><text x="240.48" y="-237.416" dominant-baseline="central" fill="black" font-size="14" font-family="sans" text-anchor="middle"><tspan x="240.48" dy="14">+</tspan></text><text x="221.39999999999998" y="-224.39999999999998" dominant-baseline="central" fill="black" font-size="8" font-family="sans" text-anchor="end"><tspan x="221.39999999999998" dy="8">C1</tspan><tspan x="221.39999999999998" dy="8">1000µF/25V</tspan></text><text x="266.4" y="-244.2" dominant-baseline="central" fill="black" font-size="8" font-family="sans" text-anchor="end"><tspan x="266.4" dy="8">R4</tspan><tspan x="266.4" dy="8">1k</tspan></text><text x="317.61" y="-168.2" dominant-baseline="central" fill="black" font-size="8" font-family="sans" text-anchor="start"><tspan x="317.61" dy="8">LED2 green</tspan></text><text x="23.399999999999984" y="22.0" dominant-baseline="central" fill="black" font-size="14" font-family="sans" text-anchor="end"><tspan x="23.399999999999984" dy="14">VIN/5V</tspan></text><text x="53.999999999999986" y="22.000000000000014" dominant-baseline="central" fill="black" font-size="14" font-family="sans" text-anchor="end"><tspan x="53.999999999999986" dy="14">GND</tspan></text><text x="84.6" y="22.000000000000014" dominant-baseline="central" fill="black" font-size="14" font-family="sans" text-anchor="end"><tspan x="84.6" dy="14">GPIO25</tspan></text><text x="115.19999999999999" y="22.000000000000014" dominant-baseline="central" fill="black" font-size="14" font-family="sans" text-anchor="end"><tspan x="115.19999999999999" dy="14">GPIO26</tspan></text><text x="145.79999999999998" y="22.00000000000003" dominant-baseline="central" fill="black" font-size="14" font-family="sans" text-anchor="end"><tspan x="145.79999999999998" dy="14">GPIO27</tspan></text><text x="88.19999999999999" y="-17.999999999999986" dominant-baseline="central" fill="black" font-size="9" font-family="sans" text-anchor="middle"><tspan x="88.19999999999999" dy="9">ESP32</tspan><tspan x="88.19999999999999" dy="9">DevKit V1</tspan><tspan x="88.19999999999999" dy="9">USB only</tspan></text><text x="23.39999999999998" y="14.399999999999999" dominant-baseline="ideographic" fill="blue" font-size="9" font-family="sans" text-anchor="middle"><tspan x="23.39999999999998" dy="9">+5V_LOGIC</tspan><tspan x="23.39999999999998" dy="9">from USB only</tspan></text><text x="66.6" y="71.20000000000002" dominant-baseline="ideographic" fill="black" font-size="8" font-family="sans" text-anchor="middle"><tspan x="66.6" dy="8">GND_COMMON</tspan></text><text x="251.10000000000002" y="-89.3" dominant-baseline="ideographic" fill="black" font-size="11" font-family="sans" text-anchor="end"><tspan x="251.10000000000002" dy="11">1</tspan></text><text x="248.4" y="-84.2" dominant-baseline="central" fill="black" font-size="14" font-family="sans" text-anchor="start"><tspan x="248.4" dy="14">/OE1</tspan></text><text x="283.5" y="-89.3" dominant-baseline="ideographic" fill="black" font-size="11" font-family="sans" text-anchor="end"><tspan x="283.5" dy="11">2</tspan></text><text x="280.8" y="-84.19999999999999" dominant-baseline="central" fill="black" font-size="14" font-family="sans" text-anchor="start"><tspan x="280.8" dy="14">1A</tspan></text><text x="315.90000000000003" y="-89.3" dominant-baseline="ideographic" fill="black" font-size="11" font-family="sans" text-anchor="end"><tspan x="315.90000000000003" dy="11">3</tspan></text><text x="313.2" y="-84.19999999999999" dominant-baseline="central" fill="black" font-size="14" font-family="sans" text-anchor="start"><tspan x="313.2" dy="14">1Y</tspan></text><text x="348.3" y="-89.29999999999998" dominant-baseline="ideographic" fill="black" font-size="11" font-family="sans" text-anchor="end"><tspan x="348.3" dy="11">4</tspan></text><text x="345.6" y="-84.19999999999999" dominant-baseline="central" fill="black" font-size="14" font-family="sans" text-anchor="start"><tspan x="345.6" dy="14">/OE2</tspan></text><text x="380.7" y="-89.29999999999998" dominant-baseline="ideographic" fill="black" font-size="11" font-family="sans" text-anchor="end"><tspan x="380.7" dy="11">5</tspan></text><text x="378.0" y="-84.19999999999997" dominant-baseline="central" fill="black" font-size="14" font-family="sans" text-anchor="start"><tspan x="378.0" dy="14">2A</tspan></text><text x="413.1" y="-89.29999999999995" dominant-baseline="ideographic" fill="black" font-size="11" font-family="sans" text-anchor="end"><tspan x="413.1" dy="11">6</tspan></text><text x="410.40000000000003" y="-84.19999999999997" dominant-baseline="central" fill="black" font-size="14" font-family="sans" text-anchor="start"><tspan x="410.40000000000003" dy="14">2Y</tspan></text><text x="445.5" y="-89.29999999999995" dominant-baseline="ideographic" fill="black" font-size="11" font-family="sans" text-anchor="end"><tspan x="445.5" dy="11">7</tspan></text><text x="442.8" y="-84.19999999999996" dominant-baseline="central" fill="black" font-size="14" font-family="sans" text-anchor="start"><tspan x="442.8" dy="14">GND</tspan></text><text x="251.1" y="42.1" dominant-baseline="ideographic" fill="black" font-size="11" font-family="sans" text-anchor="start"><tspan x="251.1" dy="11">14</tspan></text><text x="248.39999999999998" y="31.0" dominant-baseline="central" fill="black" font-size="14" font-family="sans" text-anchor="end"><tspan x="248.39999999999998" dy="14">VCC</tspan></text><text x="283.5" y="42.10000000000002" dominant-baseline="ideographic" fill="black" font-size="11" font-family="sans" text-anchor="start"><tspan x="283.5" dy="11">13</tspan></text><text x="280.8" y="31.000000000000014" dominant-baseline="central" fill="black" font-size="14" font-family="sans" text-anchor="end"><tspan x="280.8" dy="14">/OE4</tspan></text><text x="315.90000000000003" y="42.10000000000002" dominant-baseline="ideographic" fill="black" font-size="11" font-family="sans" text-anchor="start"><tspan x="315.90000000000003" dy="11">12</tspan></text><text x="313.2" y="31.000000000000014" dominant-baseline="central" fill="black" font-size="14" font-family="sans" text-anchor="end"><tspan x="313.2" dy="14">4A</tspan></text><text x="348.3" y="42.10000000000002" dominant-baseline="ideographic" fill="black" font-size="11" font-family="sans" text-anchor="start"><tspan x="348.3" dy="11">11</tspan></text><text x="345.59999999999997" y="31.000000000000014" dominant-baseline="central" fill="black" font-size="14" font-family="sans" text-anchor="end"><tspan x="345.59999999999997" dy="14">4Y</tspan></text><text x="380.7" y="42.10000000000004" dominant-baseline="ideographic" fill="black" font-size="11" font-family="sans" text-anchor="start"><tspan x="380.7" dy="11">10</tspan></text><text x="378.0" y="31.00000000000003" dominant-baseline="central" fill="black" font-size="14" font-family="sans" text-anchor="end"><tspan x="378.0" dy="14">/OE3</tspan></text><text x="413.09999999999997" y="42.10000000000004" dominant-baseline="ideographic" fill="black" font-size="11" font-family="sans" text-anchor="start"><tspan x="413.09999999999997" dy="11">9</tspan></text><text x="410.4" y="31.00000000000003" dominant-baseline="central" fill="black" font-size="14" font-family="sans" text-anchor="end"><tspan x="410.4" dy="14">3A</tspan></text><text x="445.5" y="42.10000000000004" dominant-baseline="ideographic" fill="black" font-size="11" font-family="sans" text-anchor="start"><tspan x="445.5" dy="11">8</tspan></text><text x="442.8" y="31.00000000000003" dominant-baseline="central" fill="black" font-size="14" font-family="sans" text-anchor="end"><tspan x="442.8" dy="14">3Y</tspan></text><text x="349.2" y="-31.499999999999975" dominant-baseline="central" fill="black" font-size="9" font-family="sans" text-anchor="middle"><tspan x="349.2" dy="9">U1</tspan><tspan x="349.2" dy="9">SN74AHCT125N</tspan><tspan x="349.2" dy="9">DIP-14 TOP VIEW</tspan><tspan x="349.2" dy="9">notch up</tspan></text><text x="248.39999999999998" y="32.4" dominant-baseline="ideographic" fill="blue" font-size="9" font-family="sans" text-anchor="middle"><tspan x="248.39999999999998" dy="9">+5V_LOGIC</tspan></text><text x="280.8" y="32.4" dominant-baseline="ideographic" fill="blue" font-size="9" font-family="sans" text-anchor="middle"><tspan x="280.8" dy="9">+5V_LOGIC</tspan></text><text x="378.0" y="32.40000000000003" dominant-baseline="ideographic" fill="blue" font-size="9" font-family="sans" text-anchor="middle"><tspan x="378.0" dy="9">+5V_LOGIC</tspan></text><text x="367.6111688245431" y="57.96000000000002" dominant-baseline="hanging" fill="black" font-size="9" font-family="sans" text-anchor="start"><tspan x="367.6111688245431" dy="9">NC</tspan></text><text x="464.81116882454313" y="57.96000000000002" dominant-baseline="hanging" fill="black" font-size="9" font-family="sans" text-anchor="start"><tspan x="464.81116882454313" dy="9">NC</tspan></text><text x="154.79999999999998" y="-113.12" dominant-baseline="central" fill="black" font-size="8" font-family="sans" text-anchor="start"><tspan x="154.79999999999998" dy="8">GPIO25 → U1 pin 2</tspan></text><text x="154.79999999999998" y="-95.83999999999996" dominant-baseline="central" fill="black" font-size="8" font-family="sans" text-anchor="start"><tspan x="154.79999999999998" dy="8">GPIO26 → U1 pin 5</tspan></text><text x="259.2" y="-122.19999999999999" dominant-baseline="ideographic" fill="black" font-size="8" font-family="sans" text-anchor="middle"><tspan x="259.2" dy="8">R1</tspan><tspan x="259.2" dy="8">470Ω</tspan></text><text x="226.07999999999998" y="-102.88" dominant-baseline="central" fill="green" font-size="10" font-family="sans" text-anchor="start"><tspan x="226.07999999999998" dy="10">J1_DATA</tspan></text><text x="356.40000000000003" y="-122.19999999999997" dominant-baseline="ideographic" fill="black" font-size="8" font-family="sans" text-anchor="middle"><tspan x="356.40000000000003" dy="8">R2</tspan><tspan x="356.40000000000003" dy="8">470Ω</tspan></text><text x="323.28000000000003" y="-102.87999999999998" dominant-baseline="central" fill="green" font-size="10" font-family="sans" text-anchor="start"><tspan x="323.28000000000003" dy="10">J2_DATA</tspan></text><text x="396.0" y="-215.10000000000002" dominant-baseline="central" fill="black" font-size="9" font-family="sans" text-anchor="start"><tspan x="396.0" dy="9">U1 decoupling</tspan><tspan x="396.0" dy="9">close to pins 14/7</tspan></text><text x="403.2" y="-223.20000000000002" dominant-baseline="ideographic" fill="blue" font-size="9" font-family="sans" text-anchor="middle"><tspan x="403.2" dy="9">+5V_LOGIC</tspan></text><text x="419.40000000000003" y="-163.20000000000002" dominant-baseline="central" fill="black" font-size="8" font-family="sans" text-anchor="end"><tspan x="419.40000000000003" dy="8">C2</tspan><tspan x="419.40000000000003" dy="8">0.1µF</tspan></text><text x="455.40000000000003" y="-163.20000000000002" dominant-baseline="central" fill="black" font-size="8" font-family="sans" text-anchor="end"><tspan x="455.40000000000003" dy="8">C3</tspan><tspan x="455.40000000000003" dy="8">10µF</tspan></text><text x="156.6" y="83.40000000000003" dominant-baseline="central" fill="black" font-size="8" font-family="sans" text-anchor="end"><tspan x="156.6" dy="8">R3</tspan><tspan x="156.6" dy="8">220Ω</tspan></text><text x="207.81" y="155.4" dominant-baseline="central" fill="black" font-size="8" font-family="sans" text-anchor="start"><tspan x="207.81" dy="8">LED1 red</tspan><tspan x="207.81" dy="8">status</tspan></text><text x="488.7" y="-64.1" dominant-baseline="ideographic" fill="black" font-size="11" font-family="sans" text-anchor="end"><tspan x="488.7" dy="11">1</tspan></text><text x="486.0" y="-58.99999999999999" dominant-baseline="central" fill="black" font-size="14" font-family="sans" text-anchor="start"><tspan x="486.0" dy="14">V+</tspan></text><text x="499.5" y="-64.1" dominant-baseline="ideographic" fill="black" font-size="11" font-family="sans" text-anchor="end"><tspan x="499.5" dy="11">2</tspan></text><text x="496.8" y="-58.99999999999999" dominant-baseline="central" fill="black" font-size="14" font-family="sans" text-anchor="start"><tspan x="496.8" dy="14">GND</tspan></text><text x="510.3" y="-64.1" dominant-baseline="ideographic" fill="black" font-size="11" font-family="sans" text-anchor="end"><tspan x="510.3" dy="11">3</tspan></text><text x="507.59999999999997" y="-58.99999999999999" dominant-baseline="central" fill="black" font-size="14" font-family="sans" text-anchor="start"><tspan x="507.59999999999997" dy="14">DATA</tspan></text><text x="500.40000000000003" y="-25.999999999999993" dominant-baseline="central" fill="black" font-size="8" font-family="sans" text-anchor="middle"><tspan x="500.40000000000003" dy="8">J1 LED OUT</tspan></text><text x="488.7" y="22.300000000000004" dominant-baseline="ideographic" fill="black" font-size="11" font-family="sans" text-anchor="end"><tspan x="488.7" dy="11">1</tspan></text><text x="486.0" y="27.400000000000006" dominant-baseline="central" fill="black" font-size="14" font-family="sans" text-anchor="start"><tspan x="486.0" dy="14">V+</tspan></text><text x="499.5" y="22.300000000000004" dominant-baseline="ideographic" fill="black" font-size="11" font-family="sans" text-anchor="end"><tspan x="499.5" dy="11">2</tspan></text><text x="496.8" y="27.400000000000006" dominant-baseline="central" fill="black" font-size="14" font-family="sans" text-anchor="start"><tspan x="496.8" dy="14">GND</tspan></text><text x="510.3" y="22.30000000000001" dominant-baseline="ideographic" fill="black" font-size="11" font-family="sans" text-anchor="end"><tspan x="510.3" dy="11">3</tspan></text><text x="507.59999999999997" y="27.400000000000006" dominant-baseline="central" fill="black" font-size="14" font-family="sans" text-anchor="start"><tspan x="507.59999999999997" dy="14">DATA</tspan></text><text x="500.40000000000003" y="60.400000000000006" dominant-baseline="central" fill="black" font-size="8" font-family="sans" text-anchor="middle"><tspan x="500.40000000000003" dy="8">J2 LED OUT</tspan></text><text x="496.08" y="-77.67999999999999" dominant-baseline="ideographic" fill="red" font-size="10" font-family="sans" text-anchor="middle"><tspan x="496.08" dy="10">+12V_PROTECTED</tspan></text><text x="517.68" y="-77.67999999999999" dominant-baseline="ideographic" fill="green" font-size="10" font-family="sans" text-anchor="middle"><tspan x="517.68" dy="10">J1_DATA</tspan></text><text x="496.08" y="8.720000000000006" dominant-baseline="ideographic" fill="red" font-size="10" font-family="sans" text-anchor="middle"><tspan x="496.08" dy="10">+12V_PROTECTED</tspan></text><text x="517.68" y="8.72000000000001" dominant-baseline="ideographic" fill="green" font-size="10" font-family="sans" text-anchor="middle"><tspan x="517.68" dy="10">J2_DATA</tspan></text><text x="3.5999999999999996" y="54.8" dominant-baseline="ideographic" fill="black" font-size="10" font-family="sans" text-anchor="middle"><tspan x="3.5999999999999996" dy="10">Meter before power: +12V_PROTECTED ↔ +5V_LOGIC = open/megaohms; all GND points ≈0Ω; U1 pin 14 gets USB-derived +5V only.</tspan></text><text x="3.5999999999999996" y="71.0" dominant-baseline="ideographic" fill="red" font-size="10" font-family="sans" text-anchor="middle"><tspan x="3.5999999999999996" dy="10">Full LED current stays off solderless breadboard. 1N5822 is prototype/current-limited only, not final multi-amp protection.</tspan></text><circle cx="234.0" cy="-295.2" r="2.6999999999999997" style="stroke:red;fill:white;stroke-width:1.4;stroke-dasharray:-;" /><circle cx="174.6" cy="-316.8" r="2.6999999999999997" style="stroke:black;fill:white;stroke-width:1.4;stroke-dasharray:-;" /><circle cx="223.2" cy="-93.60000000000001" r="2.6999999999999997" style="stroke:green;fill:white;stroke-width:1.4;stroke-dasharray:-;" /><circle cx="320.40000000000003" cy="-93.6" r="2.6999999999999997" style="stroke:green;fill:white;stroke-width:1.4;stroke-dasharray:-;" /><circle cx="486.0" cy="-68.39999999999999" r="2.6999999999999997" style="stroke:red;fill:white;stroke-width:1.4;stroke-dasharray:-;" /><circle cx="507.59999999999997" cy="-68.39999999999999" r="2.6999999999999997" style="stroke:green;fill:white;stroke-width:1.4;stroke-dasharray:-;" /><circle cx="486.0" cy="18.000000000000004" r="2.6999999999999997" style="stroke:red;fill:white;stroke-width:1.4;stroke-dasharray:-;" /><circle cx="507.59999999999997" cy="18.000000000000007" r="2.6999999999999997" style="stroke:green;fill:white;stroke-width:1.4;stroke-dasharray:-;" /></svg>